<?xml version="1.0" standalone="no"?>
<!DOCTYPE svg PUBLIC "-//W3C//DTD SVG 20010904//EN"
 "http://www.w3.org/TR/2001/REC-SVG-20010904/DTD/svg10.dtd">
<svg version="1.0" xmlns="http://www.w3.org/2000/svg"
 width="100.000000pt" height="100.000000pt" viewBox="0 0 100.000000 100.000000"
 preserveAspectRatio="xMidYMid meet">
<metadata>
Created by potrace 1.14, written by Peter Selinger 2001-2017
</metadata>
<g transform="translate(0.000000,100.000000) scale(0.100000,-0.100000)"
fill="#000000" stroke="none">
<path d="M10 984 c-12 -13 3 -31 104 -126 112 -106 183 -193 220 -268 48 -98
-2 -269 -144 -494 -41 -64 -42 -83 -4 -92 35 -9 49 0 88 53 96 132 177 333
178 439 0 108 -65 216 -224 370 -137 132 -185 159 -218 118z"/>
<path d="M883 968 c-170 -145 -298 -300 -327 -397 -32 -110 16 -268 147 -478
51 -82 76 -101 117 -88 32 10 29 30 -17 101 -95 147 -156 300 -156 391 0 59
41 151 94 213 55 64 169 176 209 206 48 35 57 54 34 71 -29 21 -61 15 -101
-19z"/>
<path d="M399 945 c-42 -24 -79 -50 -82 -58 -3 -7 13 -33 35 -58 22 -24 56
-63 76 -86 55 -61 86 -61 141 0 92 100 111 123 111 139 0 20 -147 108 -181
108 -13 0 -58 -20 -100 -45z m124 -45 c7 0 20 -6 29 -14 16 -11 14 -16 -18
-52 l-35 -39 -35 40 -35 39 38 23 c21 13 40 18 41 13 2 -6 9 -10 15 -10z"/>
</g>
</svg>
